<svg width="69" height="19" viewBox="0 0 69 19" fill="none" xmlns="http://www.w3.org/2000/svg">
<path d="M8.37634 9.648C8.98434 9.744 9.53634 9.992 10.0323 10.392C10.5443 10.792 10.9443 11.288 11.2323 11.88C11.5363 12.472 11.6883 13.104 11.6883 13.776C11.6883 14.624 11.4723 15.392 11.0403 16.08C10.6083 16.752 9.97634 17.288 9.14434 17.688C8.32834 18.072 7.36034 18.264 6.24034 18.264H0.000343919V1.536H6.00034C7.13634 1.536 8.10434 1.728 8.90434 2.112C9.70434 2.48 10.3043 2.984 10.7043 3.624C11.1043 4.264 11.3043 4.984 11.3043 5.784C11.3043 6.776 11.0323 7.6 10.4883 8.256C9.96034 8.896 9.25634 9.36 8.37634 9.648ZM2.18434 8.76H5.85634C6.88034 8.76 7.67234 8.52 8.23234 8.04C8.79234 7.56 9.07234 6.896 9.07234 6.048C9.07234 5.2 8.79234 4.536 8.23234 4.056C7.67234 3.576 6.86434 3.336 5.80834 3.336H2.18434V8.76ZM6.04834 16.464C7.13634 16.464 7.98434 16.208 8.59234 15.696C9.20034 15.184 9.50434 14.472 9.50434 13.56C9.50434 12.632 9.18434 11.904 8.54434 11.376C7.90434 10.832 7.04834 10.56 5.97634 10.56H2.18434V16.464H6.04834ZM16.9031 7.248C17.2871 6.496 17.8311 5.912 18.5351 5.496C19.2551 5.08 20.1271 4.872 21.1511 4.872V7.128H20.5751C18.1271 7.128 16.9031 8.456 16.9031 11.112V18.264H14.7191V5.112H16.9031V7.248ZM24.8002 2.976C24.3842 2.976 24.0322 2.832 23.7442 2.544C23.4562 2.256 23.3122 1.904 23.3122 1.488C23.3122 1.072 23.4562 0.719999 23.7442 0.431999C24.0322 0.143999 24.3842 -9.53674e-07 24.8002 -9.53674e-07C25.2002 -9.53674e-07 25.5362 0.143999 25.8082 0.431999C26.0962 0.719999 26.2402 1.072 26.2402 1.488C26.2402 1.904 26.0962 2.256 25.8082 2.544C25.5362 2.832 25.2002 2.976 24.8002 2.976ZM25.8562 5.112V18.264H23.6722V5.112H25.8562ZM32.2425 6.912V14.664C32.2425 15.304 32.3785 15.76 32.6505 16.032C32.9225 16.288 33.3945 16.416 34.0665 16.416H35.6745V18.264H33.7065C32.4905 18.264 31.5785 17.984 30.9705 17.424C30.3625 16.864 30.0585 15.944 30.0585 14.664V6.912H28.3545V5.112H30.0585V1.8H32.2425V5.112H35.6745V6.912H32.2425Z" fill="black"/>
<path d="M40.5047 0.504V18.264H38.3207V0.504H40.5047ZM56.2269 11.184C56.2269 11.6 56.2029 12.04 56.1549 12.504H45.6429C45.7229 13.8 46.1629 14.816 46.9629 15.552C47.7789 16.272 48.7629 16.632 49.9149 16.632C50.8589 16.632 51.6429 16.416 52.2669 15.984C52.9069 15.536 53.3549 14.944 53.6109 14.208H55.9629C55.6109 15.472 54.9069 16.504 53.8509 17.304C52.7949 18.088 51.4829 18.48 49.9149 18.48C48.6669 18.48 47.5469 18.2 46.5549 17.64C45.5789 17.08 44.8109 16.288 44.2509 15.264C43.6909 14.224 43.4109 13.024 43.4109 11.664C43.4109 10.304 43.6829 9.112 44.2269 8.088C44.7709 7.064 45.5309 6.28 46.5069 5.736C47.4989 5.176 48.6349 4.896 49.9149 4.896C51.1629 4.896 52.2669 5.168 53.2269 5.712C54.1869 6.256 54.9229 7.008 55.4349 7.968C55.9629 8.912 56.2269 9.984 56.2269 11.184ZM53.9709 10.728C53.9709 9.896 53.7869 9.184 53.4189 8.592C53.0509 7.984 52.5469 7.528 51.9069 7.224C51.2829 6.904 50.5869 6.744 49.8189 6.744C48.7149 6.744 47.7709 7.096 46.9869 7.8C46.2189 8.504 45.7789 9.48 45.6669 10.728H53.9709ZM65.9737 18.264L62.8537 13.368L59.8537 18.264H57.5737L61.8217 11.736L57.5737 5.112H60.0457L63.1657 9.984L66.1417 5.112H68.4217L64.1977 11.616L68.4457 18.264H65.9737Z" fill="#939393"/>
</svg>
